<?xml version="1.0" standalone="no"?>
<!DOCTYPE svg PUBLIC "-//W3C//DTD SVG 20010904//EN"
 "http://www.w3.org/TR/2001/REC-SVG-20010904/DTD/svg10.dtd">
<svg version="1.0" xmlns="http://www.w3.org/2000/svg"
 width="573.000000pt" height="573.000000pt" viewBox="0 0 573.000000 573.000000"
 preserveAspectRatio="xMidYMid meet">
<metadata>
Created by potrace 1.11, written by Peter Selinger 2001-2013
</metadata>
<g transform="translate(0.000000,573.000000) scale(0.100000,-0.100000)"
fill="#000000" stroke="none">
<path d="M2880 5546 c0 -19 78 -34 200 -40 88 -4 140 -11 150 -20 9 -8 25 -10
40 -6 24 6 24 7 5 17 -24 13 -62 21 -140 28 -33 4 -71 8 -85 11 -57 10 -170
16 -170 10z"/>
<path d="M2264 5510 c-34 -4 -79 -16 -101 -27 -21 -11 -69 -24 -106 -27 -77
-8 -123 -23 -292 -94 -66 -27 -134 -53 -152 -57 -34 -7 -145 -74 -159 -96 -4
-7 22 4 58 24 35 20 96 48 134 62 181 69 173 66 200 52 l26 -14 -44 -16 c-27
-10 -50 -28 -61 -46 -12 -21 -42 -40 -114 -71 -54 -23 -119 -55 -146 -71 -26
-16 -51 -29 -55 -29 -17 0 -209 -120 -247 -154 -22 -20 -48 -36 -57 -36 -10 0
-17 -5 -15 -12 2 -13 -80 -38 -100 -30 -9 3 -5 14 12 34 14 17 24 32 21 35 -2
2 -27 -8 -56 -24 -46 -25 -74 -53 -75 -76 0 -11 -87 -97 -97 -97 -21 0 -170
-164 -198 -217 -17 -33 -42 -72 -56 -88 -31 -36 -147 -271 -174 -353 -31 -96
-10 -109 62 -37 49 49 61 50 48 4 -7 -22 -6 -29 3 -26 12 3 31 54 42 109 5 28
65 98 84 98 25 0 8 -57 -40 -136 -88 -146 -164 -309 -241 -516 -12 -31 -29
-36 -49 -12 -9 11 -12 43 -10 104 2 93 -3 104 -49 95 -51 -10 -59 -16 -65 -53
-3 -20 -15 -59 -27 -87 -51 -123 -52 -128 -53 -265 -2 -129 6 -180 28 -180 24
0 77 -52 77 -75 0 -15 10 -31 26 -41 23 -16 25 -21 20 -73 -3 -31 -5 -103 -5
-159 -1 -97 -2 -104 -22 -109 -12 -4 -29 -23 -40 -47 l-18 -41 26 -14 c22 -11
24 -15 11 -22 -12 -7 -14 -18 -6 -66 5 -31 8 -71 6 -88 -3 -29 -3 -29 -15 -9
-16 28 -43 193 -43 259 l1 50 19 -24 c11 -13 20 -18 20 -13 0 25 -23 118 -31
126 -5 6 -9 42 -9 80 0 90 -11 110 -42 78 -22 -21 -23 -29 -22 -185 1 -383 26
-549 131 -857 56 -166 153 -402 177 -430 7 -8 16 -29 19 -47 9 -44 40 -92 131
-198 43 -50 87 -107 97 -128 11 -21 31 -43 44 -49 15 -6 25 -21 27 -37 2 -19
13 -31 42 -44 27 -13 35 -21 27 -27 -10 -6 -10 -12 -2 -29 16 -30 27 -26 36
12 4 18 9 26 12 17 2 -8 12 -32 21 -53 13 -33 19 -38 41 -34 20 4 33 -3 58
-29 18 -20 42 -34 55 -34 39 0 127 -59 197 -130 36 -37 93 -85 126 -106 60
-39 158 -84 184 -84 8 0 29 -11 47 -25 19 -14 52 -32 75 -40 23 -8 56 -28 75
-44 21 -19 53 -33 91 -41 32 -6 92 -20 135 -31 42 -10 95 -21 118 -24 23 -3
50 -9 59 -14 16 -9 64 -15 198 -26 39 -4 111 -13 160 -20 66 -11 163 -13 388
-10 165 2 309 6 320 8 53 13 205 18 205 8 0 -6 -8 -11 -17 -12 -33 -1 -97 -10
-183 -24 -47 -8 -202 -17 -345 -21 -313 -9 -300 -9 -350 4 -22 6 -78 13 -125
17 -117 9 -229 29 -335 61 -179 53 -266 67 -279 45 -12 -19 209 -93 344 -116
47 -8 109 -22 139 -30 118 -32 346 -56 540 -56 135 -1 221 7 336 27 44 9 107
17 140 20 33 3 71 9 85 14 14 5 40 8 58 9 18 0 56 4 85 10 28 5 78 12 109 15
62 6 186 50 339 121 53 25 102 45 108 45 6 0 20 13 33 30 15 20 30 30 48 30
16 0 41 13 61 31 46 43 257 195 294 213 17 8 54 36 84 61 30 26 80 64 111 85
31 21 62 45 69 54 18 22 103 48 180 55 79 7 99 29 111 122 9 71 18 99 31 99
16 0 69 105 95 190 15 47 32 92 40 100 7 9 16 31 19 50 3 19 15 48 27 64 13
18 23 54 29 100 5 43 30 135 64 231 63 177 87 266 110 400 9 50 19 106 22 125
10 54 6 283 -6 326 -12 45 -18 109 -26 284 -4 68 -9 128 -11 132 -3 4 -17 58
-33 120 -26 100 -27 115 -14 134 13 20 11 28 -10 81 -14 32 -28 85 -32 118
-17 148 -84 340 -135 388 -20 19 -30 38 -30 57 0 28 -47 126 -142 295 -105
186 -122 215 -130 215 -8 0 -12 -31 -9 -59 4 -26 -23 -4 -34 28 -6 19 -22 42
-35 53 -64 51 -136 117 -174 157 -56 60 -120 119 -191 178 -33 28 -69 60 -80
73 -11 12 -38 31 -60 42 -22 11 -63 40 -91 63 -57 49 -172 115 -199 115 -9 0
18 -23 61 -51 105 -69 237 -170 230 -176 -7 -8 -102 31 -219 89 -54 27 -142
60 -195 74 -53 14 -110 34 -127 44 -16 10 -88 37 -160 60 -71 23 -148 49 -170
57 -38 15 -222 44 -274 43 -29 0 -74 27 -66 40 12 20 -18 21 -39 1 -33 -31
-86 -26 -86 10 0 28 -31 40 -73 28 -19 -5 -37 -16 -40 -23 -7 -16 -61 -15
-104 3 -15 6 -57 17 -93 25 l-65 13 50 7 c28 4 66 10 85 13 52 7 73 22 35 24
-83 5 -458 4 -511 -1z"/>
<path d="M3480 5436 c0 -13 34 -36 53 -36 19 0 19 2 7 14 -16 14 -60 31 -60
22z"/>
<path d="M3650 5369 c0 -16 60 -47 81 -42 15 4 28 23 17 23 -2 0 -24 7 -50 15
-28 8 -48 10 -48 4z"/>
<path d="M1790 5329 c0 -5 5 -7 10 -4 6 3 10 8 10 11 0 2 -4 4 -10 4 -5 0 -10
-5 -10 -11z"/>
<path d="M3804 5305 c11 -8 22 -12 25 -9 6 6 -19 24 -34 24 -5 -1 -1 -7 9 -15z"/>
<path d="M3905 5260 c-3 -5 -1 -10 4 -10 6 0 11 5 11 10 0 6 -2 10 -4 10 -3 0
-8 -4 -11 -10z"/>
<path d="M1245 5098 c-33 -22 -64 -47 -70 -53 -5 -7 -25 -22 -42 -34 -18 -12
-33 -29 -33 -37 0 -11 10 -9 45 8 25 12 45 27 45 32 0 6 28 36 62 68 35 32 60
58 58 58 -3 0 -32 -19 -65 -42z"/>
<path d="M5606 2901 c-11 -16 -14 -78 -5 -92 6 -10 10 -5 15 19 6 29 8 31 20
15 7 -10 14 -13 14 -6 0 6 7 19 16 27 14 15 14 16 -6 16 -11 0 -23 7 -26 15
-7 17 -20 20 -28 6z"/>
<path d="M5646 2771 c-24 -26 -45 -88 -46 -131 0 -34 -35 -178 -45 -188 -11
-11 -17 9 -17 60 -1 66 -10 84 -20 38 -15 -75 -20 -96 -25 -110 -2 -8 -5 -44
-5 -80 0 -89 -19 -180 -56 -278 -18 -45 -39 -111 -47 -146 -8 -35 -22 -76 -30
-92 -8 -16 -15 -37 -15 -47 0 -10 -12 -40 -26 -68 -14 -28 -23 -53 -21 -56 3
-2 19 3 36 11 48 25 61 21 61 -19 0 -19 4 -35 8 -35 17 0 81 77 106 127 14 29
37 85 50 125 14 40 36 100 50 133 14 33 33 94 41 135 9 41 20 84 25 95 17 39
20 73 8 77 -9 3 -8 13 4 39 9 19 19 57 23 84 3 28 10 54 16 60 5 5 9 34 9 65
0 45 -4 58 -21 68 -11 7 -19 21 -18 30 3 27 -13 122 -21 122 -4 0 -15 -9 -24
-19z"/>
</g>
</svg>
